<?xml version="1.0" standalone="no"?><!DOCTYPE svg PUBLIC "-//W3C//DTD SVG 1.1//EN" "http://www.w3.org/Graphics/SVG/1.1/DTD/svg11.dtd"><svg t="1709103557888" class="icon" viewBox="0 0 1024 1024" version="1.1" xmlns="http://www.w3.org/2000/svg" p-id="7372" xmlns:xlink="http://www.w3.org/1999/xlink" width="200" height="200"><path d="M512 139.17297778c205.90407933 0 372.82702222 166.9229429 372.82702222 372.82702222s-166.9229429 372.82702222-372.82702222 372.82702222-372.82702222-166.9229429-372.82702222-372.82702222 166.9229429-372.82702222 372.82702222-372.82702222z m0 62.13783704c-171.58328067 0-310.68918518 139.10590451-310.68918518 310.68918518 0 171.58328067 139.10590451 310.68918518 310.68918518 310.68918518 171.58328067 0 310.68918518-139.10590451 310.68918518-310.68918518 0-171.58328067-139.10590451-310.68918518-310.68918518-310.68918518z m168.04142397 141.67426843c11.3919368 11.43336202 12.0961656 29.49475998 2.15411168 41.73591389l-2.15411168 2.36123779-124.08926058 124.42066237 125.06275336 125.43558037 2.13339907 2.3612378c9.96276654 12.2411539 9.25853772 30.30255186-2.13339907 41.71520128-11.3919368 11.41264941-29.39119692 12.13759084-41.5909256 2.13339907l-2.36123782-2.13339907L512 555.60004898l-125.06275333 125.41486777a31.0274933 31.0274933 0 0 1-43.95216342 0 31.23461941 31.23461941 0 0 1-2.13339907-41.71520128l2.13339907-2.3612378 125.04204075-125.43558037-124.06854797-124.42066237-2.15411168-2.36123779a31.23461941 31.23461941 0 0 1 2.15411168-41.71520127 31.0274933 31.0274933 0 0 1 41.5909256-2.13339907l2.3612378 2.13339907L512 467.40574562l124.06854795-124.39994975a31.0274933 31.0274933 0 0 1 43.97287602 0z" p-id="7373"></path></svg>