<?xml version="1.0" standalone="no"?><!DOCTYPE svg PUBLIC "-//W3C//DTD SVG 1.1//EN" "http://www.w3.org/Graphics/SVG/1.1/DTD/svg11.dtd"><svg t="1708783701441" class="icon" viewBox="0 0 1024 1024" version="1.1" xmlns="http://www.w3.org/2000/svg" p-id="9174" xmlns:xlink="http://www.w3.org/1999/xlink" width="200" height="200"><path d="M797.2 878.2H227V226.9h81.5v122.3h407.2V226.9h81.5m-285.3-81.5c22.4 0 40.8 18.4 40.8 40.8 0 10.8-4.5 21.1-12.1 28.7-7.6 7.6-17.9 12.1-28.7 12.1s-21.1-4.5-28.7-12.1c-7.6-7.6-12.1-17.9-12.1-28.7s4.5-21.1 12.1-28.7c7.6-8.1 17.9-12.1 28.7-12.1m285.3 0H627c-17.5-47.5-62.3-81.5-115.1-81.5s-97.6 34-114.7 81.5H227c-21.5 0-42.6 8.5-57.8 23.7-15.2 15.2-23.7 35.8-23.7 57.8v651.3c0 21.5 8.5 42.6 23.7 57.8 15.2 15.2 35.8 23.7 57.8 23.7h570.2c21.5 0 42.6-8.5 57.8-23.7s23.7-35.8 23.7-57.8V226.9c0-21.5-8.5-42.6-23.7-57.8-15.7-15.2-36.3-23.7-57.8-23.7z" p-id="9175"></path></svg>